<?xml version="1.0" encoding="UTF-8"?>
<!DOCTYPE svg PUBLIC "-//W3C//DTD SVG 1.1//EN" "http://www.w3.org/Graphics/SVG/1.1/DTD/svg11.dtd">
<!-- Creator: CorelDRAW X8 -->
<svg xmlns="http://www.w3.org/2000/svg" xml:space="preserve" width="6.4459mm" height="6.4558mm" version="1.1" style="shape-rendering:geometricPrecision; text-rendering:geometricPrecision; image-rendering:optimizeQuality; fill-rule:evenodd; clip-rule:evenodd"
viewBox="0 0 23 23"
 xmlns:xlink="http://www.w3.org/1999/xlink">
 <defs>
  <style type="text/css">
   <![CDATA[
    .fil0 {fill:#B2AADB}
    .fil1 {fill:#DFB5DB}
    .fil2 {fill:#FFCADC}
   ]]>
  </style>
 </defs>
 <g id="Layer_x0020_1">
  <metadata id="CorelCorpID_0Corel-Layer"/>
  <path class="fil0" d="M11 15c0,0 0,0 1,0l0 0 0 0 -1 0zm3 -2c0,-1 0,-1 0,-1 0,0 0,0 0,0 0,0 0,0 0,0l0 0c0,0 0,0 0,0 0,0 0,0 0,0l1 0c0,-1 1,-2 2,-3 0,0 0,-1 1,-1l0 -1c0,0 0,0 1,0 0,0 0,0 0,0l1 -1c0,-1 0,-1 0,-1 0,0 0,0 1,0 -1,-1 -1,-1 -1,-1l-1 -1c0,0 -1,0 -1,0 0,0 0,-1 0,-1 0,0 0,0 -1,0 0,0 0,0 0,0l0 0c0,0 0,0 0,0 0,0 0,0 0,0l1 0c-1,0 -2,-1 -2,-1 0,0 -1,-1 -1,-1l0 0c0,0 0,0 0,0 0,1 -1,1 -1,2 -1,0 -1,1 -1,1 0,0 -1,1 -1,1 -1,0 -1,1 -1,1 0,0 -1,1 -1,1l-2 2c2,1 3,1 3,2 0,1 0,1 0,2 0,0 0,0 0,0 0,0 -1,0 -1,0 -1,1 -2,0 -3,0 1,0 1,0 1,0 0,0 0,0 0,0 0,1 2,2 2,2 0,0 0,0 0,0 1,0 1,1 2,1 0,0 2,-2 2,-2zm-3 2l0 0c0,0 0,0 0,0zm-1 -1c0,0 0,1 1,1l0 0c0,0 0,0 0,0 0,0 0,0 0,0 0,-1 0,0 -1,-1zm-1 0l1 0c0,0 0,0 0,0 0,0 0,0 -1,0zm-1 -1c0,0 0,0 0,0l1 0c0,0 0,0 -1,0zm0 -1c0,1 0,0 0,1 0,0 0,0 0,0 0,0 0,0 0,0 0,0 0,0 0,0 0,0 0,0 0,0l0 -1zm-1 0c1,0 0,0 1,0 -1,0 0,0 -1,0zm1 0l-1 0 0 0c0,0 0,0 1,0zm0 0l0 0 0 0zm0 0l0 0 0 0zm0 0l0 0 0 0zm0 0l0 0 0 0zm1 0c0,0 0,0 0,0 0,0 0,0 0,0zm0 0c0,0 0,0 0,0 0,0 0,0 0,0zm1 0l-1 0c1,0 1,0 1,0zm0 0l0 0 0 0zm0 0c1,0 0,0 1,0 -1,0 -1,0 -1,0zm1 0c0,0 0,0 0,0l0 0zm0 0c0,0 0,0 0,-1l0 1zm0 0l0 -1 0 1zm0 -1c0,0 0,0 0,0 0,0 0,0 0,0zm0 0c0,0 0,0 0,0l0 0zm0 -1c0,0 0,0 0,0l0 0zm0 0c0,0 0,0 0,0 0,0 0,0 0,0zm0 0c0,0 0,0 0,0 0,0 0,0 0,0zm0 -1l0 1c0,-1 0,-1 0,-1zm-1 0c0,0 0,0 0,0l1 0c0,0 0,0 0,0l-1 0zm0 0c0,0 0,0 0,0l0 0zm0 0c0,0 0,0 0,0 0,0 0,0 0,0zm0 0l0 0 0 0zm0 0c0,0 0,0 0,0l0 0zm0 0c0,0 0,0 0,0 0,0 -1,0 0,0zm0 0c-1,0 0,0 -1,0 0,0 0,0 1,0zm-1 -1c0,0 0,1 0,1l0 -1zm0 0c0,0 0,0 0,0l0 0zm0 0c0,0 0,0 0,0 0,0 0,0 0,0zm0 0l0 0 0 0zm-1 0l1 0c0,0 0,0 -1,0l0 0 0 0zm1 -1c0,0 0,0 0,1 0,0 0,0 0,0 -1,0 -1,0 -1,0 1,0 1,0 1,0 0,-1 0,0 0,-1zm0 0c0,0 0,0 0,0 0,0 0,0 0,0l0 0c0,0 0,0 0,0 0,0 0,0 0,0l0 0zm1 -1l-1 1c0,0 0,0 0,0 0,0 0,0 0,0 1,0 1,-1 1,-1zm0 -1c0,1 0,0 0,1 0,0 0,0 0,0l0 0c0,0 0,0 0,0 0,0 0,0 0,0l0 -1zm1 0l0 0 0 -1 0 0c0,0 0,0 0,0 0,0 0,0 0,1 0,0 0,0 0,0 0,0 0,0 0,0 0,0 0,0 0,0 0,0 0,0 0,0zm1 -1l0 0c0,0 0,0 0,0 -1,0 -1,0 0,0 -1,0 -1,0 -1,0 0,0 0,0 0,0 0,0 0,0 0,0 0,0 0,0 0,0 1,0 0,0 0,0l1 0 0 0zm0 0l0 0 0 -1c0,0 0,0 0,1 0,0 0,0 0,0 0,0 0,0 0,0 0,0 0,0 0,0 0,0 0,0 0,0 0,0 0,0 0,0l0 0 0 0zm0 -1l0 0 0 0c0,0 0,0 0,0 0,0 0,0 0,0 0,0 0,0 0,0l0 0c0,0 0,0 0,0 0,0 0,0 0,0l0 0 0 0zm1 -1c0,0 0,0 0,1 0,0 0,0 0,0 0,0 0,0 0,0l0 -1zm0 0l0 0 0 0c0,0 0,0 0,0 0,0 0,0 0,0 0,0 0,0 0,0 0,0 0,0 0,0 0,0 0,0 0,0l0 0c0,0 0,1 0,0 0,0 0,0 0,0l0 0 0 0zm1 0l0 0 0 -1c0,0 0,0 0,1 0,0 0,0 0,0 -1,0 -1,0 0,0 -1,0 -1,0 -1,0 0,0 0,0 0,0 0,0 0,0 0,0l1 0 0 0zm0 -1l0 0 0 0c0,0 0,0 0,0 0,0 0,0 0,0 0,0 0,0 0,0 0,0 0,0 0,0 0,0 0,0 0,0 0,0 0,1 0,0l0 0 0 0zm0 0l0 0 0 0c0,0 0,0 0,0 0,0 0,0 0,0 0,0 0,0 0,0l0 0c0,0 0,0 0,0 0,0 0,0 0,0l0 0 0 0zm1 -1c0,0 0,0 0,0 0,0 0,0 0,0 0,0 0,0 0,0l0 0zm0 0l0 0 0 0c0,0 0,0 0,0l1 0 0 1 0 0c0,0 0,0 0,0 0,0 0,0 0,0 0,-1 0,0 0,0 0,-1 0,-1 0,-1 0,0 0,0 -1,0 0,0 0,0 0,0l0 0c0,0 0,0 0,0 0,0 0,0 0,0 0,0 0,0 0,0l0 0 0 0 0 0 0 0zm1 1l0 0 0 0c0,0 0,0 0,0 0,0 0,0 0,0 0,0 0,0 0,0 0,0 0,0 0,0l0 0 0 0zm1 0l0 0 0 0c0,0 0,0 0,0 0,0 0,0 -1,0 0,0 1,0 0,0l0 0c0,0 0,0 0,0 0,0 0,0 0,0l1 0 0 0zm0 1c0,0 0,0 0,0 0,0 0,0 0,0 0,0 0,0 0,0l0 0zm-4 11c1,0 0,0 1,0 0,0 0,0 0,0 0,0 -1,0 -1,0zm0 1c0,0 0,0 0,0l0 -1c0,1 0,1 0,1zm0 0c0,0 0,0 0,0l0 0c0,0 0,0 0,0zm-1 1l0 0c0,0 0,0 0,0 0,-1 0,-1 0,-1 0,0 0,0 0,1zm0 0l0 0c0,0 0,0 0,0zm3 -6l0 1c0,0 0,0 0,0 0,0 0,0 0,0 0,0 0,-1 0,-1zm-4 0c0,0 0,0 0,0 0,0 0,-1 0,-2 0,0 0,-1 0,-1 0,0 0,0 0,0 0,0 0,0 1,0 0,0 0,0 0,-1 1,0 1,0 2,0 0,0 0,0 0,1 3,1 2,4 -1,4 0,0 0,0 -1,0 0,0 -1,-1 -1,-1zm4 0c1,0 0,0 0,0 0,0 0,0 0,0zm0 0c1,0 1,0 1,0 -1,0 -1,0 -1,0zm1 0l0 0 0 0zm0 -1l0 0c0,0 0,0 0,0zm0 -1c0,0 0,0 0,0l0 0zm0 0l0 0 0 0zm0 0c0,0 0,0 -1,0 0,0 0,0 1,0zm-1 0l0 0 0 0zm0 0c0,-1 0,0 0,-1 0,1 0,1 0,1zm0 -1l0 0c0,0 0,0 0,0 0,0 0,0 0,0zm-1 0c0,0 0,0 1,0l-1 0zm0 0c0,-1 0,-1 0,0l0 0zm0 -1l0 0 0 0zm-3 1c0,0 0,0 0,0l0 0zm0 1c0,0 0,-1 0,0l0 0zm0 0l0 0 0 0zm0 0l0 0c0,0 0,0 0,0zm0 1c0,0 0,0 0,0l0 0zm0 0l0 1 0 -1zm0 1c0,0 0,0 0,0l0 0zm0 0c0,0 0,0 0,0l0 0zm1 1c0,0 0,0 0,0 0,0 0,0 0,0zm0 0c0,0 0,0 0,0 0,0 0,0 0,0zm0 0c0,0 0,0 0,0 0,0 0,0 0,0zm2 0l-1 0c0,0 0,0 0,0 0,0 1,0 1,0 0,0 0,0 0,0zm0 0c0,0 0,0 0,0l0 0zm0 0c1,0 1,0 1,0l-1 0z"/>
  <path class="fil1" d="M22 21c0,0 0,0 0,0 0,0 0,0 0,0l1 0c0,0 -1,0 -1,0 0,0 0,0 0,-1 0,-1 -1,-2 -1,-3 -1,-1 -2,-1 -4,-1 -1,0 -2,0 -3,0 -1,0 -2,0 -2,0 0,1 0,1 1,1 0,1 0,1 1,1 1,0 2,-1 2,0 -1,0 -3,0 -4,0 -1,0 -2,0 -3,-1 0,0 -2,-1 -2,-1 -1,-1 -1,0 -1,0 0,1 0,1 1,2 0,0 1,1 2,1l1 1c2,2 5,0 6,1 1,0 1,0 1,1 1,0 5,-1 5,-1z"/>
  <path class="fil0" d="M9 6c0,0 0,0 0,0 0,0 0,0 0,0l0 0c0,-1 0,0 0,0 0,-1 0,-1 1,-1 0,0 0,0 0,0 0,0 0,0 0,0l0 0c0,0 0,0 0,0l0 0 0 0c0,0 0,0 0,0 0,0 0,0 0,0l0 -1c0,1 0,1 0,0 0,0 0,0 0,0l0 0c0,0 0,0 0,0 0,0 0,0 0,0l0 0c0,0 0,0 0,0 0,0 0,0 0,0 0,0 0,0 0,0 0,0 0,0 0,0l0 0c0,0 -1,0 -1,0l0 0 0 0c0,0 0,0 0,0l0 0c0,0 0,0 0,0l0 0 0 0c0,0 0,0 0,0 0,0 -1,0 -1,0 0,0 0,0 0,0l0 0c0,0 0,0 0,0 0,0 0,0 0,0l0 0 0 0c0,0 0,0 0,0l0 0c-1,0 -1,0 -1,0 0,0 0,0 0,0 0,0 0,0 0,0l-1 0 1 0c0,0 0,0 0,0 -1,0 -1,0 -1,0 0,0 0,0 0,0l0 0 0 0c-1,0 0,0 -1,0l0 0 0 0c0,0 0,0 0,0l0 0 0 0c0,0 0,0 0,0l0 0 0 0c-1,0 0,0 0,0l-1 0 1 0c-1,0 -1,0 -1,0 0,0 0,0 0,1l0 0c0,0 0,0 0,-1 0,1 0,0 0,1l0 0c0,0 0,0 0,0 -1,0 0,0 0,0l-1 0 0 0c0,0 0,0 0,0 0,0 0,0 0,0l0 0 0 0 -1 0c0,1 0,4 0,5l1 -1 0 0c0,0 1,0 1,0 1,1 1,1 2,1 1,1 2,1 3,1 1,1 1,1 2,0 0,-1 -1,-1 -1,-1l-3 -2c0,0 0,0 0,0 0,-1 0,-1 0,-1 0,0 0,0 0,0 0,0 1,0 1,0 0,0 0,0 0,0l0 0 0 0c0,0 0,0 0,0l0 0c1,0 1,0 1,-1l-1 1 1 -1c0,0 0,0 0,0 0,0 0,0 0,0z"/>
  <polygon class="fil2" points="17,23 23,23 23,22 17,23 "/>
  <path class="fil0" d="M0 6l0 0 0 0c0,2 1,3 1,4l0 0 0 -6 -1 0 0 2zm1 4c0,0 0,0 0,0 0,0 0,0 -1,0 1,0 0,0 1,0zm0 -1c0,0 0,0 0,0 0,0 0,0 -1,0 0,0 0,0 1,0zm-1 -1c0,0 0,0 0,0l0 0zm0 0c0,-1 0,-1 0,-1 0,0 0,0 0,0 0,0 0,0 0,1zm0 -3c0,0 0,0 0,0 0,0 0,0 0,0z"/>
  <path class="fil0" d="M13 9l0 0c0,0 0,0 0,0 0,0 0,0 0,0 0,0 1,0 1,0 0,0 -1,0 0,0l-1 0c0,0 0,0 0,0zm1 0c0,0 0,0 0,0 1,0 1,0 1,0l-1 -1c1,0 1,-1 0,-1 0,0 -1,0 -1,0l0 0c-1,0 0,0 0,0l0 0 0 0c0,0 0,0 0,0 0,0 0,0 0,0 0,0 0,0 0,0 0,0 0,0 0,0 0,0 0,0 0,0l0 -1c0,1 0,1 0,1l0 -1 0 0 0 0 0 0c0,0 0,0 0,0l0 0c0,0 0,1 -1,1l0 -1 1 0c0,0 0,0 0,0 0,0 0,0 0,0 -1,0 -1,0 -1,0 0,0 0,0 0,1l0 0c0,0 0,0 0,0l0 -1 0 0c0,1 0,0 0,1 0,0 0,0 0,0 0,0 0,0 0,0l0 0 0 0 0 0 0 0c0,0 0,0 0,0l0 0 0 0 0 0 0 0 0 0c0,1 0,1 1,1l0 0 0 0c0,0 0,0 0,0 0,0 0,0 0,0 0,0 0,0 0,0 0,0 0,0 0,0 0,0 0,0 0,0 0,0 0,0 0,0l0 0c1,0 0,0 1,0 0,0 0,0 0,0l0 0 -1 1 1 0c0,0 0,0 0,0zm-1 0c0,0 0,0 0,0 0,0 0,0 0,0zm1 -1l-1 1c1,-1 1,-1 1,-1zm0 1l0 0 0 0 0 0c0,0 0,0 0,0z"/>
  <path class="fil0" d="M7 12l0 -1 0 1c0,0 0,0 0,0 1,0 0,0 1,0l0 0 0 0 0 1c0,0 0,0 0,0 0,0 0,0 0,0l0 0c1,0 1,0 1,0 0,1 0,1 0,1 1,0 1,0 1,0 0,0 0,0 0,0l0 0c0,0 0,0 0,0l0 0c1,1 1,0 1,1 0,0 0,0 0,0l0 0c0,0 0,0 0,0 0,0 0,0 0,0l1 0 0 0c0,0 0,1 0,0 0,0 0,0 0,0l0 0c0,-1 0,-1 0,-1l1 0c0,0 0,0 0,0l0 0c0,0 0,0 0,-1l0 0c0,0 1,0 1,0l0 0c0,0 0,0 0,-1 0,0 0,1 0,0 0,0 0,0 0,0l0 0c0,0 0,0 0,0 0,0 0,0 0,0 0,0 0,0 0,1 0,0 -2,2 -2,2 -1,0 -1,-1 -2,-1 0,0 0,0 0,0 0,0 -2,-1 -2,-2 0,0 0,0 0,0 0,0 0,0 -1,0 1,0 2,1 3,0 0,0 1,0 1,0 0,0 0,0 0,0 0,-1 0,-1 0,-2 0,-1 -1,-1 -3,-2l2 -2c0,0 1,-1 1,-1 0,0 0,-1 1,-1 0,0 1,-1 1,-1 0,0 0,-1 1,-1 0,-1 1,-1 1,-2 0,0 0,0 0,0l0 0c0,0 1,1 1,1 0,0 1,1 2,1l-1 0c0,0 0,0 0,0 0,0 0,0 0,0l0 0 0 0c0,0 0,0 0,0 0,-1 0,0 0,-1l0 0 0 0 -1 0c0,0 0,0 0,0 0,0 0,0 0,0l0 0 0 0 0 0 0 0 0 0 0 0c0,0 0,0 0,0 0,0 0,0 0,0l0 0 0 -1 -1 0c0,0 0,0 0,0l0 0 0 0 0 0 0 0 0 0 0 0 0 0c0,0 0,0 0,0l0 0 -1 1 0 0 0 0 0 0c0,0 0,0 0,0 0,0 0,0 0,0l0 0 0 0 0 0 0 0 0 0c0,1 0,0 0,0l0 0 0 1 0 0 0 0 -1 0c0,0 0,0 0,0l0 0 0 0 0 0 0 0 0 0c0,0 0,0 0,0 0,1 0,0 0,0l0 0 0 1c0,0 0,0 0,0l0 0 -1 0 0 0 0 0 0 0c0,0 0,0 0,0 0,0 0,0 0,0l0 0 0 1 0 0 0 0 0 0c0,0 0,0 0,0l0 0 0 0 0 0 -1 0c0,0 1,0 0,0 0,0 0,0 0,0l0 0 0 0 0 1 0 0c0,0 0,0 0,0 0,0 0,0 0,0l0 0 -1 0 0 1c0,0 0,0 0,0 0,0 0,0 0,0l0 0c0,0 0,1 -1,1 0,0 0,0 0,0l0 0 0 0c0,0 0,0 0,0 0,0 0,0 0,0l0 0c0,1 0,0 0,1 0,0 0,0 -1,0 0,0 0,0 0,0 0,0 0,0 0,0l0 0c1,0 1,0 1,0l0 0 0 0 0 0c0,0 0,0 0,0l0 0c0,0 0,0 0,0l0 0 0 1 0 0c1,0 0,0 1,0l0 0c0,0 0,0 0,0l0 0c0,0 0,0 0,0 0,0 0,0 0,0l0 0 0 0c0,0 0,0 0,0l0 0c0,0 0,0 0,0l0 0 1 0 0 0c0,0 0,0 0,1l0 0c0,0 0,0 0,0l0 0c0,0 0,0 0,0l0 0c0,0 0,0 0,0l0 1c0,0 0,0 0,0l0 0c0,0 0,0 0,0l0 0 0 1 0 -1c0,1 0,1 0,1l0 0c0,0 0,0 0,0l0 0c0,0 0,0 0,0l0 0c-1,0 0,0 -1,0l0 0 0 0 0 0c0,0 0,0 -1,0l0 0c0,0 0,0 0,0l0 0c0,0 0,0 0,0l-1 0 0 0 0 0 0 0 0 0 0 0 0 0 0 0 0 0c-1,0 -1,0 -1,0l0 0z"/>
  <path class="fil0" d="M0 5c0,0 0,0 0,0 0,0 0,1 0,1l0 -2 1 0 0 6 0 0c0,-1 -1,-2 -1,-4l0 0 0 1c0,0 0,0 0,0 0,0 0,0 0,1l0 0c0,0 0,0 0,0l0 1c1,0 1,0 1,0 0,0 0,0 0,0l-1 1c1,0 1,0 1,0 0,0 0,0 0,0l0 1 0 0 0 -7 0 0 -1 0 0 1z"/>
  <path class="fil0" d="M7 4l0 0c0,0 0,0 0,0 0,0 0,0 0,0zm1 0l0 0 0 0c0,0 0,0 0,0zm-2 0c0,0 0,0 0,0 0,0 0,0 0,0 0,0 0,0 1,0 0,0 0,0 0,0l-1 0zm0 0l-1 0c1,0 0,0 1,0l0 0zm-1 0l0 0c0,0 0,0 0,0l0 0zm0 0l0 0c0,0 0,0 0,0l0 0zm0 0l0 0c0,0 -1,0 0,0l0 0zm-1 0l0 0c0,0 0,0 1,0l-1 0zm0 1l0 -1c0,1 0,1 0,1l0 0zm0 0l0 0c0,0 -1,0 0,0 0,0 0,0 0,0l0 0zm-1 0l0 0c0,0 0,0 0,0 0,0 0,0 0,0l0 0zm0 0l-1 0 0 5 0 0c0,-1 0,-4 0,-5l1 0 0 0zm0 4l0 0 0 0z"/>
  <path class="fil0" d="M8 4l0 0 0 0c0,0 0,0 0,0 0,0 0,0 0,0zm1 0l-1 0c0,0 0,0 0,0 0,0 1,0 1,0 0,0 0,0 0,0zm0 0l0 0 0 0c0,0 0,0 0,0l0 0c0,0 0,0 0,0zm1 0l-1 0 0 0c0,0 1,0 1,0zm0 0l0 0c0,0 0,0 0,0 0,0 0,0 0,0 0,0 0,0 0,0zm0 0c0,0 0,0 0,0l0 0 0 0c0,0 0,0 0,0 0,0 0,0 0,0l0 0zm0 1c0,0 0,0 0,0l0 0c0,0 0,0 0,0l0 0 0 0zm-1 1c0,0 0,-1 0,0l0 0 0 0c0,0 0,0 0,0l1 -1c0,0 0,0 0,0 -1,0 -1,0 -1,1zm0 0l0 0c0,0 0,0 0,0 0,0 0,0 0,0l-1 1 1 -1zm-1 1c0,0 0,0 0,0 0,0 -1,0 -1,0 0,0 0,0 0,0 0,0 1,0 1,0 0,0 0,0 0,0 0,0 0,0 0,0l0 0 0 0z"/>
  <path class="fil0" d="M12 7c0,0 0,0 0,0 0,-1 0,0 0,-1l0 0 0 1c0,0 0,0 0,0 0,-1 0,-1 0,-1 0,0 0,0 0,0 0,0 0,0 0,0 0,0 0,0 0,0 0,0 0,0 0,1zm0 0l0 0 0 0 0 0 0 0zm0 0l0 0 0 0 0 0 0 0zm1 1c-1,0 -1,0 -1,-1l0 0c0,1 0,1 1,1zm0 0l0 0c0,0 0,0 0,0l0 0zm0 0c0,0 0,0 0,0 0,0 0,0 0,0l0 0zm0 0l0 0c0,0 0,0 0,0l0 0z"/>
  <path class="fil0" d="M22 21l1 0 -1 -1c0,1 0,1 0,1 0,0 1,0 1,0l-1 0c0,0 0,0 0,0 0,0 0,0 0,0z"/>
  <path class="fil0" d="M13 9l0 0c0,0 0,0 0,0l0 0c0,0 0,0 0,0l0 0c0,0 0,0 0,0l1 0 0 0c0,0 0,0 0,0l0 0c0,0 0,0 0,0 0,0 0,0 0,0l-1 0 1 -1 0 0 0 0c0,0 0,0 -1,1z"/>
  <path class="fil0" d="M13 6c0,0 0,0 0,0l0 0 0 0zm0 1l0 0c0,0 0,0 0,0 0,0 0,0 0,-1l0 1zm0 0c0,0 0,0 0,0 0,0 0,0 0,0 0,0 0,0 0,0zm0 0l0 0c0,0 0,0 0,0l0 0 0 0c0,0 -1,0 0,0zm0 -1c0,0 0,0 0,0l-1 0 0 1c1,0 1,-1 1,-1l0 0 0 0z"/>
  <path class="fil0" d="M7 12l0 -1c0,0 0,0 0,0 0,1 0,0 0,1z"/>
  <path class="fil0" d="M13 9c0,0 0,0 0,0l0 0c0,0 0,0 0,0z"/>
 </g>
</svg>
