<?xml version="1.0" encoding="UTF-8"?>
<!DOCTYPE svg PUBLIC "-//W3C//DTD SVG 1.1//EN" "http://www.w3.org/Graphics/SVG/1.1/DTD/svg11.dtd">
<!-- Creator: CorelDRAW X8 -->
<svg xmlns="http://www.w3.org/2000/svg" xml:space="preserve" width="6.4348mm" height="5.5264mm" version="1.1" style="shape-rendering:geometricPrecision; text-rendering:geometricPrecision; image-rendering:optimizeQuality; fill-rule:evenodd; clip-rule:evenodd"
viewBox="0 0 32 28"
 xmlns:xlink="http://www.w3.org/1999/xlink">
 <defs>
  <style type="text/css">
   <![CDATA[
    .fil0 {fill:#B2AADB}
    .fil2 {fill:#DFB5DB}
    .fil1 {fill:#FFCADC}
   ]]>
  </style>
 </defs>
 <g id="Layer_x0020_1">
  <metadata id="CorelCorpID_0Corel-Layer"/>
  <path class="fil0" d="M11 24l11 0c0,0 0,0 0,0l1 3 -14 0 1 -2c0,0 0,-1 1,-1zm-10 -2l0 -1 30 0c0,1 0,2 -1,2l-28 0c-1,0 -1,-1 -1,-1zm12 -9l1 0 0 7 -1 0 0 -7zm-3 2l1 0 0 5 -1 0 0 -5zm-4 2l1 0 0 3 -1 0 0 -3zm-3 1l1 0 0 2 -1 0 0 -2zm9 -6l0 8 0 0 0 -5c0,-2 -1,-1 -2,-1 -1,0 -1,0 -1,0l0 6 -1 0 0 -4c0,-1 -1,0 -2,0 0,0 -1,0 -1,0l0 4 0 0 0 -2c0,0 0,-1 -1,-1 0,0 -2,0 -2,0 0,1 0,1 0,1l0 2 -1 0 0 -18c0,-1 0,-1 1,-1l28 0c1,0 1,0 1,1l0 18 -16 0 0 -8c0,0 0,0 0,0l-2 0c-1,0 -1,0 -1,0zm-12 -10l0 20c0,1 1,1 1,2 1,0 2,0 3,0 1,0 3,0 5,0 0,0 0,0 0,1l-1 1c0,1 0,0 0,1 0,0 0,1 0,1l16 0c0,0 0,-1 0,-1 0,0 -1,-2 -1,-2 0,-1 0,-1 0,-1 2,0 4,0 6,0 0,0 2,0 2,0 1,-1 1,-1 1,-2l0 -20c0,-1 -1,-2 -2,-2l-28 0c-1,0 -2,1 -2,2z"/>
  <path class="fil1" d="M27 7c1,0 1,0 1,0 0,0 0,-1 1,-1l0 1c0,1 0,1 0,2l-1 0c0,-1 -1,-1 -1,-2zm-9 2l-2 0c0,-1 0,-1 0,-2 0,0 1,0 1,-1 0,0 1,1 1,1 0,0 0,1 0,2zm8 -4c0,0 0,-1 0,-1 1,0 2,1 2,1l-1 1c0,0 -1,0 -1,0 0,-1 0,-1 0,-1zm-7 1l-2 -1c1,0 1,-1 2,-1 0,0 1,1 1,1 -1,0 -1,1 -1,1zm6 -1c-1,-1 -1,-1 -2,-1l0 -1c1,0 2,0 2,0 0,0 0,1 0,2zm-5 -2c0,0 1,0 2,0l0 1c0,0 -1,0 -1,1 -1,-1 -1,-1 -1,-1l0 -1zm-5 6c0,1 0,1 1,1l2 0c1,0 0,-1 1,-3 2,-2 5,-2 7,0 0,0 0,1 1,1 0,2 -1,2 2,2 1,0 1,0 1,-1 0,-3 -1,-5 -3,-6 -5,-4 -12,0 -12,6z"/>
  <path class="fil2" d="M6 10c0,0 0,0 -1,-1 0,0 0,0 0,0 0,0 0,-1 0,-1 1,0 1,0 1,0 1,0 2,0 2,-1 0,1 1,1 1,1 0,1 -1,2 -3,2zm2 -4c0,1 -1,1 -2,1 -1,0 -1,-1 0,-2 0,0 2,0 2,1zm-1 -3c0,0 0,0 0,0 3,1 3,4 3,4 0,0 0,0 0,0 -1,0 -1,0 -1,-1 0,0 0,-1 -1,-1 0,-1 -1,-1 -1,-1l0 -1zm-3 3c0,2 1,1 0,2 0,0 0,0 0,1 -1,-1 -1,-2 -1,-3 0,-1 0,-1 1,-2 0,0 0,-1 1,-1 0,0 1,0 1,0l0 1c-1,0 -2,1 -2,2zm-2 0c0,3 2,4 4,5 3,0 5,-2 5,-5 0,-1 0,-2 -1,-3 -2,-2 -5,-2 -7,0 -1,1 -1,2 -1,3z"/>
  <path class="fil0" d="M11 9c0,0 0,1 0,1 0,0 0,0 0,0 0,0 0,0 0,0l-7 4c-1,0 -1,1 -1,1 0,0 0,0 0,0 1,1 1,0 2,0 2,-1 5,-4 7,-4 0,0 -1,1 0,1 1,0 1,-1 1,-2 0,-1 0,-1 -1,-1 0,0 -1,-1 -1,0z"/>
  <path class="fil0" d="M17 13c0,1 1,1 1,1l9 0c1,0 1,-1 1,-1l-10 0c0,0 -1,0 -1,0z"/>
  <path class="fil0" d="M17 18c0,0 0,1 1,1l10 0c0,0 0,-2 -1,-2l-9 0c0,0 -1,1 -1,1z"/>
  <path class="fil0" d="M17 16c0,0 0,0 1,0l10 0c0,0 0,0 0,0 0,0 0,-1 0,-1l-10 0c0,0 -1,0 -1,0 0,0 0,1 0,1z"/>
  <path class="fil1" d="M22 9c0,-1 1,-1 1,0 0,1 -1,1 -1,0zm2 -1c-1,-1 -3,-1 -3,1 0,1 1,2 2,2 1,0 1,-1 1,-1 0,0 0,0 0,0 0,0 0,-1 0,-1 1,0 1,0 1,0 1,-1 1,-1 1,-2 0,0 0,0 0,0 -1,0 -2,1 -2,1z"/>
 </g>
</svg>
