<?xml version="1.0" encoding="UTF-8"?>
<!DOCTYPE svg PUBLIC "-//W3C//DTD SVG 1.1//EN" "http://www.w3.org/Graphics/SVG/1.1/DTD/svg11.dtd">
<!-- Creator: CorelDRAW X8 -->
<svg xmlns="http://www.w3.org/2000/svg" xml:space="preserve" width="6.6387mm" height="4.9921mm" version="1.1" style="shape-rendering:geometricPrecision; text-rendering:geometricPrecision; image-rendering:optimizeQuality; fill-rule:evenodd; clip-rule:evenodd"
viewBox="0 0 55 41"
 xmlns:xlink="http://www.w3.org/1999/xlink">
 <defs>
  <style type="text/css">
   <![CDATA[
    .fil0 {fill:#B2AADB}
    .fil1 {fill:#DFB5DB}
   ]]>
  </style>
 </defs>
 <g id="Layer_x0020_1">
  <metadata id="CorelCorpID_0Corel-Layer"/>
  <path class="fil0" d="M0 1l0 37c0,1 1,1 2,1l32 0c2,0 1,-1 0,-1l-32 0 0 -36 51 0 0 36 -4 0c-1,0 -1,1 0,1 2,0 4,1 5,0 0,0 1,-1 1,-1l0 -37c0,0 -1,-1 -2,-1l-52 0c0,0 -1,1 -1,1z"/>
  <path class="fil0" d="M3 5l0 30c0,1 1,1 1,1l31 0c0,0 0,-1 0,-1l-30 0 0 -30 45 0 0 30c-1,0 -2,-1 -2,0 0,2 1,1 2,1 1,0 2,0 2,-1l0 -30c0,-1 -1,-2 -2,-2l-45 0c-1,0 -2,1 -2,2z"/>
  <path class="fil1" d="M39 39l0 -3 1 0c0,0 0,1 2,1 1,0 1,-1 2,-1l0 0 0 3c-2,-1 -2,-3 -4,-1 0,0 0,0 0,0 -1,1 -1,1 -1,1zm-3 -11c0,0 1,0 2,-1 0,-1 0,-1 0,-2 1,0 2,0 3,0 1,-1 1,-1 1,0 0,0 1,0 1,0 0,0 0,0 1,0 2,0 0,1 2,2 1,1 0,1 0,3 0,1 1,1 0,2 -1,0 -1,1 -1,2 -1,0 -1,0 -2,0 0,0 -1,1 -1,1 -1,0 -1,-1 -3,-1 0,0 0,0 0,0 -1,-1 -1,-1 -1,-2 -1,0 -2,0 -2,-1 0,0 1,0 1,-2 0,0 -1,0 -1,-1zm3 -4c-1,0 -1,0 -2,0 0,1 0,1 0,2 -1,0 -1,0 -2,1 -1,1 0,2 0,3 0,0 0,1 0,1 0,1 0,2 1,2 0,0 0,0 1,1 0,1 0,1 0,2 0,2 0,5 1,5 1,0 1,0 1,0l2 -1c0,-1 0,-1 1,-1 0,0 2,2 3,2 1,0 1,-1 1,-2 0,-1 0,-3 0,-4 0,0 0,0 0,-1 1,0 0,-1 1,-1 0,0 1,0 1,-1 1,-1 0,-2 0,-2 0,-1 1,-2 0,-3 -1,-1 -1,-1 -1,-1 -1,-1 0,-1 -1,-1 0,-1 -1,-1 -1,-1 -2,0 -1,0 -2,-1 -1,-1 -2,-1 -3,0 -1,1 0,1 -1,1z"/>
  <path class="fil0" d="M17 19c0,0 0,1 0,1l28 0c1,0 1,-2 0,-2l-27 0c-1,0 -1,0 -1,1z"/>
  <path class="fil0" d="M26 11c2,0 1,-1 2,-2 0,1 1,2 2,2 0,1 -1,0 -1,1 0,1 0,1 0,2 -1,-1 0,-2 -3,0 1,-3 0,-2 0,-3zm0 -2c-1,0 -3,0 -3,1 0,1 1,2 2,2 0,1 0,1 0,1 0,1 -1,3 1,3 0,0 2,-1 2,-1 0,0 2,1 2,1 2,0 1,-2 1,-4 0,0 2,-1 2,-2 0,-1 -2,-1 -3,-1 -1,-1 -1,-2 -2,-2 -1,0 -2,2 -2,2z"/>
  <path class="fil0" d="M10 24l23 0c2,0 1,-1 0,-1l-23 0c-1,0 -2,1 0,1z"/>
  <path class="fil0" d="M10 29l22 0c1,0 1,-2 0,-2l-22 0c-1,0 -2,2 0,2z"/>
  <path class="fil1" d="M38 30c0,3 4,5 6,2 3,-2 1,-6 -2,-6 -2,0 -4,2 -4,4zm1 0c0,2 3,3 4,2 2,-2 1,-5 -1,-5 -2,0 -3,1 -3,3z"/>
  <path class="fil0" d="M10 20l4 0c1,0 1,-2 -1,-2l-3 0c0,0 -1,0 -1,1 0,0 0,1 1,1z"/>
  <path class="fil1" d="M41 30c0,0 0,-1 0,-1 0,0 0,0 -1,0 0,0 0,0 0,1 0,0 0,0 0,1 1,0 1,0 1,0l1 -1c0,0 0,0 0,0 1,0 1,-1 1,-1 1,0 0,-1 0,-1 0,0 0,0 -1,1l0 0c-1,0 -1,1 -1,1z"/>
 </g>
</svg>
