<?xml version="1.0" encoding="UTF-8"?>
<!DOCTYPE svg PUBLIC "-//W3C//DTD SVG 1.1//EN" "http://www.w3.org/Graphics/SVG/1.1/DTD/svg11.dtd">
<!-- Creator: CorelDRAW X8 -->
<svg xmlns="http://www.w3.org/2000/svg" xml:space="preserve" width="6.4348mm" height="6.5563mm" version="1.1" style="shape-rendering:geometricPrecision; text-rendering:geometricPrecision; image-rendering:optimizeQuality; fill-rule:evenodd; clip-rule:evenodd"
viewBox="0 0 73 74"
 xmlns:xlink="http://www.w3.org/1999/xlink">
 <defs>
  <style type="text/css">
   <![CDATA[
    .fil2 {fill:#B2AADB}
    .fil1 {fill:#DFB5DB}
    .fil0 {fill:#FFCADC}
   ]]>
  </style>
 </defs>
 <g id="Layer_x0020_1">
  <metadata id="CorelCorpID_0Corel-Layer"/>
  <path class="fil0" d="M19 18l0 -7c5,0 11,-2 16,-5l1 -2 2 2c4,2 8,4 13,5 1,0 2,0 3,0 0,9 1,18 -5,26 0,0 0,1 -1,2l-2 2c0,0 0,0 -1,0 -1,1 -2,2 -3,3 -1,0 -5,2 -6,2 0,0 -3,-1 -4,-1 -2,-1 -3,-2 -5,-4l-1 -1c-2,-1 -2,-1 -3,-3 -3,-5 -4,-11 -4,-19zm-4 -6l0 10c0,2 1,7 2,9 1,3 2,6 4,9l1 1c1,1 3,3 3,4 2,1 4,2 5,3 2,0 5,2 6,2 1,0 4,-1 5,-2l2 -1c2,-1 4,-2 5,-3 0,0 0,-1 1,-1 0,0 1,-1 2,-2 3,-4 5,-10 6,-16 0,-5 0,-7 0,-13 0,-1 0,-3 0,-4 0,-1 -1,-1 -3,-1 0,0 -1,0 -2,0 -3,0 -4,0 -7,-1 -1,-1 -2,-1 -3,-2 0,0 0,0 -1,-1l-2 -1c-1,-1 -2,-2 -3,-2 -1,0 -2,1 -3,2 -2,2 -5,3 -7,4 -3,1 -5,1 -7,1 -2,0 -3,0 -3,1 -1,1 -1,1 -1,2 0,1 0,1 0,2z"/>
  <path class="fil1" d="M34 24c-2,0 -3,1 -4,2 -1,1 -1,3 -1,5 0,2 -1,2 4,2l10 0c1,0 1,-1 1,-1 0,-3 0,-4 -1,-6 -1,-1 -2,-2 -3,-2 -1,-1 -5,-1 -6,0z"/>
  <path class="fil1" d="M36 15c-2,0 -4,2 -4,4 0,2 2,4 5,4 2,0 4,-2 4,-5 -1,-2 -3,-4 -5,-3z"/>
  <path class="fil2" d="M32 70c0,1 0,1 -1,1 -3,0 -9,1 -11,1 -2,0 -2,1 -2,-6 1,0 12,-1 13,-2l1 6zm-10 -6l-1 0 -1 -1c0,-1 -1,-2 -3,-3 -10,-6 -12,-6 -14,-18 0,-3 -2,-10 -1,-11 4,-2 5,3 5,5 2,10 1,5 0,9 0,1 7,6 8,8 1,0 1,1 2,1 0,0 0,1 0,1 5,0 -7,-8 -8,-11 3,-4 7,3 10,4 7,1 10,4 10,11 0,1 0,3 0,4l-7 1zm-3 0l-3 1c0,2 1,7 1,9 2,0 15,-1 16,-2 1,-1 0,-4 0,-5 0,-5 0,-4 -2,-4 -1,-4 -1,-8 -1,-10 -3,-7 -11,-6 -13,-8 -3,-3 -3,-4 -7,-3 -1,-5 -2,-12 -7,-13 -4,-1 -3,3 -3,6 4,19 3,18 17,27 1,1 2,1 2,2z"/>
  <path class="fil2" d="M42 71c-2,0 -2,0 -1,-1l0 -4 0 -1c0,-2 1,-1 1,0 3,0 12,1 13,1l-1 6 -12 -1zm10 -8l0 1 -1 0 -8 -1c1,-8 0,-11 7,-14 4,-2 3,0 7,-3 1,-2 4,-5 7,-2 -1,2 -2,2 -3,3l-5 5c-3,2 -2,3 -1,3l5 -5c1,-1 5,-4 5,-5 0,-3 -1,0 0,-5 1,-4 1,-11 6,-9 0,1 -1,9 -2,11 0,4 -1,7 -3,10 -4,6 -13,8 -14,11zm11 -21c-4,-1 -5,0 -7,3 -3,3 -14,2 -14,13 0,2 0,3 0,5 -2,0 -2,-1 -2,3 -1,2 -1,5 -1,6 2,1 14,2 17,2 0,-2 1,-7 1,-9l-3 -1c0,-1 1,-1 2,-2 14,-9 13,-8 16,-27 1,-3 1,-7 -3,-6 -2,0 -4,2 -4,4 -1,3 -2,6 -2,9z"/>
  <path class="fil2" d="M31 71c1,0 1,0 1,-1 0,1 0,0 -1,1z"/>
  <path class="fil2" d="M42 71c-1,-1 -1,0 -1,-1 -1,1 -1,1 1,1z"/>
  <path class="fil2" d="M22 64c-2,0 -1,0 -2,-1l1 1 1 0z"/>
  <path class="fil2" d="M51 64l1 0 0 -1c0,1 0,1 -1,1z"/>
  <path class="fil2" d="M41 66l0 -1 1 0c0,-1 -1,-2 -1,0l0 1z"/>
 </g>
</svg>
