<?xml version="1.0" encoding="UTF-8"?>
<!DOCTYPE svg PUBLIC "-//W3C//DTD SVG 1.1//EN" "http://www.w3.org/Graphics/SVG/1.1/DTD/svg11.dtd">
<!-- Creator: CorelDRAW X8 -->
<svg xmlns="http://www.w3.org/2000/svg" xml:space="preserve" width="6.4348mm" height="7.3212mm" version="1.1" style="shape-rendering:geometricPrecision; text-rendering:geometricPrecision; image-rendering:optimizeQuality; fill-rule:evenodd; clip-rule:evenodd"
viewBox="0 0 39 45"
 xmlns:xlink="http://www.w3.org/1999/xlink">
 <defs>
  <style type="text/css">
   <![CDATA[
    .fil0 {fill:#B2AADB}
    .fil1 {fill:#FFCADC}
   ]]>
  </style>
 </defs>
 <g id="Layer_x0020_1">
  <metadata id="CorelCorpID_0Corel-Layer"/>
  <path class="fil0" d="M8 2l0 24c0,1 1,1 2,1l15 0 0 16c0,0 0,0 -1,0l-22 0c0,0 -1,0 -1,0l0 -33c0,-1 1,-1 3,-1 1,0 2,1 2,0 0,-1 0,-1 0,-1l-4 0c0,0 -1,0 -1,0 -1,1 -1,1 -1,2l0 33c0,1 1,2 2,2l22 0c1,0 2,-1 2,-2l0 -1 7 0c1,0 2,-1 2,-2 0,-1 1,-2 0,-2 -1,0 -1,0 -1,1 0,0 0,2 -1,2l-7 0 0 -4 11 0c1,0 2,-1 2,-2l0 -29c0,-1 -1,-2 -2,-2l-4 0c0,0 0,0 0,1 0,1 3,0 4,0 1,0 1,1 1,1l0 29c0,0 0,0 -1,0l-11 0 0 -4 9 0c0,0 0,-1 0,-1l-9 0 0 -3 9 0c0,0 1,-1 0,-1l-4 0c0,-1 0,-2 0,-2l4 0c0,0 0,-2 0,-2l-4 0 0 -2 4 0c0,0 0,-2 0,-2l-4 0 0 -2 4 0c0,0 0,-2 0,-2l-4 0 0 -2 4 0c0,0 0,-2 0,-2l-4 0c-1,0 -1,2 -1,2l0 13c0,1 0,1 -1,1l-19 0c-1,0 -1,0 -1,-1l0 -23c0,0 0,-1 1,-1l19 0c1,0 1,1 1,2l0 5c0,2 1,1 1,1l0 -7c0,-1 -1,-2 -1,-2l-20 0c-1,0 -2,1 -2,2z"/>
  <path class="fil1" d="M12 22c0,-2 1,-3 2,-3 1,-1 4,-1 4,-3 1,0 0,0 2,0 1,0 1,0 2,0 0,2 2,2 3,3 3,1 2,2 2,5l-15 0 0 -2zm4 -11l0 -3c0,-1 0,-2 1,-3 2,-2 7,0 7,3 0,2 0,4 -2,6 -3,3 -6,0 -6,-3zm-2 -3c0,2 0,5 2,7 0,0 0,0 0,1 0,1 -2,1 -3,2 -3,1 -3,4 -3,6 0,1 1,1 1,1l17 0c0,0 1,0 1,-1 0,-2 0,-3 -1,-5 -1,-2 -4,-2 -5,-3 -1,-1 0,-1 1,-2 1,-2 1,-4 1,-6 0,-3 -4,-6 -8,-5 0,0 -1,1 -1,1 -1,1 -2,2 -2,4z"/>
 </g>
</svg>
