<?xml version="1.0" encoding="UTF-8"?>
<!DOCTYPE svg PUBLIC "-//W3C//DTD SVG 1.1//EN" "http://www.w3.org/Graphics/SVG/1.1/DTD/svg11.dtd">
<!-- Creator: CorelDRAW X8 -->
<svg xmlns="http://www.w3.org/2000/svg" xml:space="preserve" width="28.3256mm" height="24.3268mm" version="1.1" style="shape-rendering:geometricPrecision; text-rendering:geometricPrecision; image-rendering:optimizeQuality; fill-rule:evenodd; clip-rule:evenodd"
viewBox="0 0 502 431"
 xmlns:xlink="http://www.w3.org/1999/xlink">
 <defs>
  <style type="text/css">
   <![CDATA[
    .fil0 {fill:#B2AADB}
    .fil2 {fill:#DFB5DB}
    .fil1 {fill:#FFCADC}
   ]]>
  </style>
 </defs>
 <g id="Layer_x0020_1">
  <metadata id="CorelCorpID_0Corel-Layer"/>
  <path class="fil0" d="M166 372l170 0c3,0 5,6 8,10l19 34 -224 0 13 -23c2,-3 11,-21 14,-21zm-150 -35l0 -7 471 0c0,12 -1,27 -20,27l-432 0c-12,0 -19,-8 -19,-20zm191 -135l15 0 0 111 -15 0 0 -111zm-54 28l14 0 0 83 -14 0 0 -83zm-55 29l15 0 0 54 -15 0 0 -54zm-53 29l14 0 0 25 -14 0 0 -25zm145 -93l0 118 -6 0 0 -86c0,-17 -10,-13 -34,-13 -6,0 -13,2 -13,7l0 92 -7 0 0 -60c0,-15 -15,-11 -38,-11 -4,0 -9,4 -9,7l0 64 -7 0 0 -33c0,-4 -3,-9 -7,-9 -9,0 -34,-2 -38,2 0,0 -2,3 -2,5l0 35 -13 0 0 -278c0,-12 7,-19 19,-19l432 0c12,0 20,7 20,19l0 278 -250 0 0 -119c0,-5 -3,-8 -8,-8l-32 0c-3,0 -7,5 -7,9zm-190 -165l0 311c0,13 8,21 16,27 10,6 25,4 40,4 30,0 59,0 89,0 -1,3 -4,9 -6,11l-13 23c-5,8 -6,6 -6,16 0,5 6,9 11,9l240 0c9,0 11,-7 11,-13 0,-4 -15,-29 -18,-34 -2,-3 -6,-9 -7,-12 30,0 59,0 88,0 15,0 31,2 40,-4 9,-5 17,-14 17,-27l0 -311c0,-14 -15,-30 -29,-30l-443 0c-14,0 -30,16 -30,30z"/>
  <path class="fil1" d="M426 110c4,-1 7,-3 10,-5 3,-2 7,-5 10,-6l6 17c1,5 3,12 3,19l-23 0c0,-10 -5,-17 -6,-25zm-151 25l-23 0c0,-7 2,-13 3,-19 2,-5 5,-11 6,-17 5,2 16,10 21,11 -3,6 -7,17 -7,25zm126 -56c1,-6 8,-14 10,-20 8,5 22,18 26,27l-19 11c-2,-3 -6,-7 -8,-10 -5,-4 -7,-5 -9,-8zm-111 18l-20 -11c4,-9 18,-22 26,-27 2,6 10,16 11,21 -5,1 -14,12 -17,17zm96 -26c-11,-5 -14,-5 -25,-7l0 -23c16,1 26,7 36,9 -1,4 -8,16 -11,21zm-76 -21c9,-2 20,-8 36,-9l0 23c-10,2 -17,3 -25,7 -2,-4 -3,-7 -6,-10l-5 -11zm-75 91c0,8 3,11 13,11l30 0c23,0 3,-19 26,-48 27,-33 74,-31 99,0 5,6 10,16 12,25 5,24 -9,23 44,23 10,0 13,-3 13,-11 0,-40 -23,-76 -51,-95 -80,-56 -186,5 -186,95z"/>
  <path class="fil2" d="M99 150c-5,0 -10,-1 -13,-2 -5,-1 -8,-3 -12,-4 1,-6 9,-12 11,-17 4,0 9,3 13,3 12,0 23,-7 28,-14 4,1 15,6 19,8 -7,13 -25,26 -46,26zm18 -54c0,10 -8,17 -19,17 -15,0 -23,-19 -12,-31 11,-10 31,-3 31,14zm-10 -55c3,1 6,2 10,3 41,14 38,61 35,64 -2,1 0,1 -2,0 -3,0 -11,-5 -17,-7 1,-9 1,-16 -6,-25 -5,-7 -10,-12 -20,-14l0 -21zm-42 53c0,27 14,15 2,31 -2,3 -4,5 -6,8 -7,-5 -16,-21 -16,-33 0,-17 2,-28 14,-42 4,-3 9,-8 14,-10 8,-5 14,-5 18,-7l0 21c-13,3 -26,16 -26,32zm-36 0c0,40 28,70 68,72 39,2 72,-33 72,-66 0,-18 -1,-32 -13,-47 -27,-34 -76,-38 -106,-8 -13,13 -21,29 -21,49z"/>
  <path class="fil0" d="M164 141c0,5 0,11 12,11 -1,1 0,0 -1,1 -1,0 -1,0 -2,1l-115 66c-4,2 -14,7 -14,12 0,5 3,7 6,9 6,1 20,-9 27,-13 27,-16 83,-49 107,-62 0,2 -6,16 6,16 9,0 10,-12 14,-23 6,-16 3,-17 -12,-20 -4,-1 -28,-9 -28,2z"/>
  <path class="fil0" d="M269 207c0,6 5,9 11,9l147 0c16,0 13,-17 2,-17l-151 0c-5,0 -9,4 -9,8z"/>
  <path class="fil0" d="M269 281c0,5 4,9 9,9l151 0c10,0 16,-17 -4,-17l-143 0c-7,0 -13,2 -13,8z"/>
  <path class="fil0" d="M269 243c0,5 2,9 8,9l153 0c3,0 5,-1 6,-2 4,-5 2,-14 -6,-14l-153 0c-3,0 -4,1 -5,2 -1,1 -3,5 -3,5z"/>
  <path class="fil1" d="M345 144c0,-15 17,-12 17,-2 0,15 -17,12 -17,2zm25 -20c-8,-12 -42,-10 -42,21 0,17 22,30 38,20 2,-1 3,-1 4,-3 2,-2 2,-1 4,-3 5,-7 5,-11 5,-22 4,-1 6,-2 8,-4 14,-8 20,-8 20,-18 0,-3 -5,-6 -8,-6 -4,0 -24,12 -29,15z"/>
 </g>
</svg>
