<?xml version="1.0" encoding="UTF-8"?>
<!DOCTYPE svg PUBLIC "-//W3C//DTD SVG 1.1//EN" "http://www.w3.org/Graphics/SVG/1.1/DTD/svg11.dtd">
<!-- Creator: CorelDRAW X8 -->
<svg xmlns="http://www.w3.org/2000/svg" xml:space="preserve" width="28.3256mm" height="28.3693mm" version="1.1" style="shape-rendering:geometricPrecision; text-rendering:geometricPrecision; image-rendering:optimizeQuality; fill-rule:evenodd; clip-rule:evenodd"
viewBox="0 0 3729 3734"
 xmlns:xlink="http://www.w3.org/1999/xlink">
 <defs>
  <style type="text/css">
   <![CDATA[
    .fil0 {fill:#B2AADB}
    .fil1 {fill:#DFB5DB}
    .fil2 {fill:#FFCADC}
   ]]>
  </style>
 </defs>
 <g id="Layer_x0020_1">
  <metadata id="CorelCorpID_0Corel-Layer"/>
  <path class="fil0" d="M1803 2430c15,13 12,11 36,16l7 4 -7 -4 -36 -16zm423 -427c-3,-19 -8,-15 12,-13 -2,-19 -7,-15 12,-13 6,-34 -1,-22 23,-52l-12 39c2,-3 4,-9 5,-7 1,2 5,-6 6,-8l84 -94c96,-110 187,-240 286,-344 145,-154 144,-179 195,-234l93 -109c16,-20 14,-21 33,-42 26,-30 54,-50 75,-76l121 -158c21,-24 48,-42 69,-68 25,-29 35,-67 58,-78 -35,-34 -71,-64 -111,-102l-187 -154c-24,-20 -39,-28 -64,-49 -43,-38 -84,-89 -131,-98 5,-20 8,-15 -13,-11 3,-19 6,-15 -14,-12l-14 -19c0,26 -7,23 14,19 -2,20 -6,16 14,12l13 11c-16,-1 -238,-181 -253,-225 -56,-10 -102,-66 -147,-105l-16 12c-29,17 7,4 -32,16 -9,63 -110,152 -151,202 -44,53 -134,175 -177,189 -9,64 -110,151 -151,202 -38,47 -133,175 -177,189 -7,47 -28,58 -76,113l-274 333c179,89 440,198 475,370 13,70 5,187 -62,219 -6,46 -3,44 -50,50 -19,41 -51,48 -105,59 -143,31 -290,-86 -421,-93 23,37 33,24 47,66 45,7 21,1 58,30 68,55 320,259 333,298 19,-3 15,-8 13,12 59,11 170,128 218,162 39,-58 331,-422 381,-439zm-497 363l65 49c-29,-41 -20,-36 -65,-49zm-76 -63c10,8 14,12 29,22l34 19c-3,19 -7,12 15,18 0,-26 8,-23 -15,-18 -31,-35 -21,-29 -63,-41zm-151 -126l115 89c-19,-19 -33,-34 -52,-52 -23,-23 -23,-25 -63,-37zm-164 -139c2,2 6,2 7,6l133 106c-29,-40 -96,-99 -140,-112zm-76 -63c30,24 14,14 50,28 -3,19 -6,15 13,12 -3,20 -7,13 15,19 0,-26 8,-23 -15,-19 3,-20 7,-16 -13,-12l-50 -28zm-89 -75c25,29 8,14 53,38 -31,-31 -18,-21 -53,-38zm25 -34l-23 -18 -28 29c41,-11 17,-7 51,-11zm37 13l-22 -19 22 19zm40 12l-25 -18 25 18zm37 13l-24 -19 24 19zm38 12l-24 -19 24 19zm15 -3c9,23 1,17 25,16 0,-23 5,-13 -25,-16zm110 42c-7,-17 17,-10 -34,-17 19,23 1,22 34,17zm118 -5l-103 -1c37,39 65,38 103,1zm28 5l22 -19 -22 19zm34 -13c25,1 16,6 25,-17 -29,3 -25,-6 -25,17zm22 -19c21,1 15,6 17,-15l-17 15zm76 -74c20,-1 16,5 15,-15l-15 15zm18 -13l15 -22 -15 22zm11 -25c24,-10 18,-1 16,-27 -23,0 -13,-4 -16,27zm12 -50c19,-1 13,3 10,-20l-10 20zm10 -107c3,-24 9,-19 -10,-21l10 21zm-6 -43c2,-27 8,-18 -16,-27 3,31 -7,27 16,27zm-12 -27c1,-25 7,-17 -17,-26 4,30 -6,26 17,26zm-92 -107l74 85c-13,-48 -29,-65 -74,-85zm-44 -18c3,2 6,1 8,5l21 11c4,2 9,4 14,6l-43 -22zm-7 1c-1,-20 4,-15 -16,-14l16 14zm-13 -16c-9,-23 -1,-18 -24,-17 0,23 -5,13 24,17zm-26 -14l-20 -16 20 16zm-49 -21c-1,-21 4,-15 -18,-13l18 13zm-14 -14c-8,-25 0,-19 -25,-18 0,23 -4,13 25,18zm-25 -14c-9,-23 0,-18 -24,-17 0,23 -4,13 24,17zm-68 -35c11,6 21,12 43,21l-43 -21zm-6 0c-2,-20 3,-15 -17,-14l17 14zm-14 -15c-9,-23 0,-18 -24,-18 0,23 -5,14 24,18zm-25 -14l-21 -17 21 17zm-47 -30l21 17c0,-31 8,-25 -21,-17l-21 -4 21 4zm34 -109c-8,10 -4,-2 -17,22 -13,24 -1,1 -11,28 -20,-3 -13,-6 -20,15 27,0 25,8 20,-15 30,-32 15,-7 28,-50zm75 -88c-31,26 -27,28 -40,63 -20,-3 -15,-7 -12,13l-19 14c26,0 23,8 19,-14 20,2 16,6 12,-13l40 -63zm127 -151l-104 138c-20,-3 -13,-7 -19,15 27,0 24,8 19,-15 35,-34 91,-95 104,-138zm63 -76c-24,30 -15,14 -29,50 -19,-3 -14,-7 -11,13l-19 14c25,0 22,8 19,-14 20,2 16,7 11,-13l29 -50zm109 -115l11 -20 6 -14 12 -15c-18,0 -13,-4 -12,15 -19,-2 -14,-5 -6,14 -22,2 -16,-3 -11,20 -49,33 -49,36 -73,79 17,-17 26,-26 40,-40 33,-34 6,8 33,-39zm86 -109l6 -16c-19,0 -14,-3 -6,16 -22,1 -17,-4 -11,19 -23,-6 -17,-10 -12,14 -21,-4 -16,-8 -11,14 -20,-3 -13,-7 -19,15 26,0 24,8 19,-15 21,3 17,7 11,-14l12 -14 11 -19zm53 -55l10 -20 6 -16c-19,0 -14,-4 -6,16 -22,1 -16,-4 -10,20 -21,-5 -16,-8 -12,14 -19,-3 -14,-7 -11,12 -21,-3 -14,-7 -20,15 26,0 23,8 20,-15l11 -12 12 -14zm74 -96l6 -16 -6 16c-22,2 -17,-3 -11,20 -21,-4 -16,-8 -12,14 -19,-3 -14,-7 -11,13l-19 14c25,0 22,8 19,-14 20,2 16,7 11,-13l12 -14 11 -20zm69 -92c-20,0 -15,-3 -7,16 -23,1 -13,-4 -19,24 24,-9 19,0 19,-24l7 -16zm57 -59l6 -14 12 -15c-18,0 -13,-4 -12,15 -19,-2 -14,-5 -6,14 -22,2 -17,-3 -11,20 -21,-5 -16,-8 -12,14 -19,-3 -14,-7 -11,13l-19 14c25,0 22,8 19,-14 20,2 16,6 11,-13l12 -14 11 -20zm64 -70l11 -19 6 -16c-19,0 -14,-3 -6,16 -22,1 -17,-4 -11,19 -23,-6 -18,-10 -12,14 -21,-4 -16,-8 -11,14 -20,-3 -13,-7 -19,15 26,0 24,8 19,-15l11 -14 12 -14zm63 -75l11 -19 6 -16c-19,0 -14,-4 -6,16 -22,1 -17,-4 -11,19 -23,-7 -18,-10 -12,14 -21,-5 -16,-8 -11,13 -20,-3 -13,-6 -19,15 26,0 24,8 19,-15l11 -13 12 -14zm74 -94l6 -17 -6 17c-22,1 -16,-4 -10,19 -21,-4 -16,-7 -12,14 -19,-3 -14,-6 -11,13l-19 14c25,0 22,8 19,-14 20,2 16,7 11,-13l12 -14 10 -19zm69 -93c-19,0 -14,-3 -6,16 -23,1 -14,-4 -20,24 25,-9 20,0 20,-24l6 -16zm49 21l15 7 14 22c-2,20 -6,16 13,12l14 11 20 11 14 7c1,18 -3,12 16,11 0,-18 4,-13 -16,-11 2,-20 5,-16 -14,-7 -1,-22 4,-16 -20,-11 5,-20 8,-15 -14,-11 3,-19 7,-14 -13,-12l-14 -22c1,-20 4,-14 -15,-7 -1,-22 4,-17 -19,-11 5,-21 8,-15 -14,-11l-11 3 11 -3 14 11 19 11zm146 128l19 10 16 7c0,-20 3,-15 -16,-7 -1,-22 4,-16 -19,-10 6,-24 10,-18 -14,-13 4,-21 8,-13 -16,-19l16 19 14 13zm94 74l16 6 -16 -6c-2,-22 3,-16 -20,-11 5,-21 8,-15 -14,-11 3,-20 7,-15 -13,-12l-14 -19c0,26 -8,23 14,19 -2,20 -6,16 13,12l14 11 20 11zm92 69c0,-20 4,-15 -16,-6 -1,-24 4,-15 -24,-20 9,25 0,19 24,20l16 6zm-632 1831c33,-26 22,-27 46,-56 34,-41 27,-18 56,-72 -47,47 -72,70 -102,128zm-63 75c2,-2 5,-8 6,-6l53 -71c-41,31 -46,33 -59,77zm-63 76c2,-2 5,-9 6,-7l53 -70c-41,31 -46,33 -59,77zm-63 76l11 -15c8,-10 9,-13 16,-22 14,-19 14,-19 32,-41 -42,31 -46,33 -59,78zm-64 74l59 -76c-39,24 -44,30 -59,76zm579 -989l-84 98c-2,2 -5,5 -7,7 -1,1 -5,4 -7,6 55,-23 83,-46 98,-111zm-626 15c-20,2 -15,6 -12,-14 -83,-38 -92,-177 -91,-261 1,-99 42,-178 100,-239 -18,28 -13,11 -25,52 25,-31 29,-42 71,-69 24,-16 54,-37 88,-50 97,-38 159,-29 258,-8 2,-2 -9,-33 74,12 366,196 272,740 -138,743 -83,1 -139,-13 -196,-44 -50,-27 -118,-62 -129,-122zm627 -10c24,-9 19,0 19,-24 -23,0 -14,-5 -19,24zm14 -25c23,-9 18,-1 17,-26 -23,0 -14,-4 -17,26zm29 -61l-18 24 18 -24zm13 -61l-16 46c35,-14 27,-21 16,-46zm-8 -111c3,-23 10,-19 -9,-21l9 21zm-5 -47l-18 -24 18 24zm-12 -35c1,-25 6,-17 -17,-26 3,30 -6,26 17,26zm-12 -29l-16 -22 16 22zm-13 -23c0,-24 6,-15 -18,-24 4,28 -5,24 18,24zm-135 -137l103 92c1,1 4,5 7,7 -22,-51 -50,-84 -110,-99zm-39 -24c10,6 20,12 42,22l-42 -22zm-7 0c-1,-21 4,-15 -18,-13l18 13zm-26 -18l-23 -14 23 14zm-479 158c8,-11 13,-19 23,-41l-23 41zm1 8c-20,2 -15,-3 -12,19l12 -19zm-17 27l-15 23 15 -23zm-27 84l15 -47c-35,15 -26,22 -15,47zm0 96c-28,31 14,44 18,48l-18 -48zm24 100l21 23 -21 -23zm42 73c-9,-22 -15,-32 -22,-43l22 43zm2 -2c0,19 -5,14 15,15l-15 -15zm131 126c-14,-10 -16,-12 -43,-24 21,23 -10,17 43,24zm-5 2c9,24 0,18 24,18 0,-23 4,-14 -24,-18zm25 13c9,23 1,18 24,17 0,-22 5,-13 -24,-17zm277 39l-164 -3c20,34 31,28 76,29 1,0 39,-2 39,-2 78,-17 17,4 49,-24zm59 -16c22,2 17,8 18,-13l-18 13zm25 -13c22,2 17,8 18,-12l-18 12z"/>
  <path class="fil1" d="M3554 3394c-52,-13 -57,5 -62,-5 -1,-3 -5,-1 -7,-1l113 0c-8,-37 -13,-37 -24,-66 -13,-34 -24,-42 -1,-60 -81,-229 -146,-387 -270,-564 -132,-190 -330,-198 -626,-198 -139,0 -278,0 -417,0 -141,0 -282,-18 -296,130 -7,70 22,118 73,149 45,28 112,22 173,22 246,-1 342,-33 312,90 -160,17 -432,9 -602,4 -223,-6 -290,-87 -428,-178 -70,-46 -308,-226 -369,-237 -102,-19 -170,39 -187,115 -24,108 71,186 176,276 82,70 169,129 246,208l165 138c340,229 802,53 1084,128 105,28 111,71 164,124 71,14 747,-50 783,-75z"/>
  <path class="fil0" d="M1378 1018c30,-25 21,-28 46,-56 34,-41 26,-17 56,-72l2 4c-3,-20 -8,-16 12,-14 7,-40 18,-47 54,-84 -27,35 -19,16 -31,58 19,-24 26,-34 39,-63l19 -14c-25,0 -22,-8 -19,14l2 -11 53 -60c-26,35 -19,17 -31,58 2,-2 5,-8 6,-6l34 -56c20,3 13,6 20,-15 -27,0 -25,-8 -20,15l-8 -13c0,-1 -3,-4 -3,-7 -1,-4 -3,-5 -5,-6l49 11c-20,-22 16,-13 -49,-26 -13,8 -2,5 -26,12 -3,0 -18,0 -24,0 -18,-14 -16,1 7,-14l-21 -10c-23,14 -59,17 -73,6l35 -1 -37 -17c-3,1 -6,4 -8,4l-28 8c-5,0 -31,-1 -38,-1l44 -6 -46 -18c-11,7 -2,4 -25,11 -3,1 -18,0 -24,0 -19,-14 -16,1 7,-14l-21 -9c-10,6 -2,5 -25,10 -7,2 -28,1 -36,2l22 -8 -37 -18c-14,9 1,5 -26,10l-23 -5c-29,-19 -19,-13 -64,-17 -13,8 11,11 -35,10 -29,-1 -13,6 -26,-10l-46 18 37 5c1,-2 5,1 7,1 -48,0 -52,4 -88,13 -89,24 -64,6 -74,0l-28 18 26 7c-41,2 -28,3 -37,-10l-36 16 22 7c-68,1 -16,3 -35,-13l-28 18 -16 0c-1,-3 -4,-3 -7,-5l-24 18 22 7c-68,1 -16,3 -36,-13l-26 19 24 6c-41,2 -28,3 -37,-10 -51,7 -26,0 -34,17l21 6c-67,1 -17,3 -36,-12 -44,8 -16,-1 -26,18l24 7c-35,3 -37,9 -53,9 -54,1 -14,3 -33,-9l-24 18 22 7c-35,3 -37,9 -53,9 -57,1 -13,5 -33,-9l-25 18 23 7 -101 0c0,141 -25,652 12,733l28 -17 23 5c81,-16 205,-83 276,-24 81,66 77,103 202,165 128,64 390,125 541,177 117,41 198,23 237,-74 49,-122 -57,-181 -129,-224l-403 -227c-57,-30 -35,2 -59,-46 -38,-81 6,-108 57,-133 17,-21 -1,-12 35,-18 1,-1 34,0 37,0 27,0 53,1 80,2l1 -29 9 16c2,-3 5,-9 6,-7l22 -29c15,-19 14,-19 31,-42l-62 61 148 -180c-16,48 -6,17 -43,58 -22,24 -27,40 -39,63z"/>
  <polygon class="fil2" points="2718,3734 3727,3734 3729,3498 2719,3595 "/>
  <path class="fil0" d="M28 977l9 48 10 -35c5,234 56,447 56,683l115 0 0 -973 -199 0 9 277zm69 639c6,-22 11,-14 4,-45 -12,-49 -13,-28 -23,-39 4,40 1,59 19,84zm-13 -128c5,-17 10,-14 6,-44 -5,-43 -8,-32 -24,-51 3,38 1,71 18,95zm-22 -185c9,-41 10,-33 -8,-48l8 48zm-4 -102c7,-30 12,-6 2,-46 -11,-52 -10,-26 -20,-39 3,40 0,58 18,85zm-38 -414c17,-46 10,-39 -17,-62 6,43 0,36 17,62z"/>
  <path class="fil0" d="M2123 1432l17 33c1,1 4,4 6,6 2,1 5,1 5,3 1,2 5,1 6,1 49,-28 -25,37 11,-11l-22 7c-9,-47 -3,-19 -23,-39zm124 -10c26,15 25,19 51,32 50,-33 48,-23 67,-81l-53 -37c33,-102 12,-181 -68,-205 -89,-27 -147,36 -223,56l-11 -33c-16,-18 -13,23 -11,-21l25 -30 10 14c-40,22 -15,6 -24,30 25,-21 20,-15 38,-42 -8,-13 -23,12 -1,-25 30,-10 14,-14 12,12 29,-5 25,5 25,-18l-19 -55c-9,30 -14,22 17,22l-17 -22 -6 -17 -15 13 2 -24c-29,4 -24,-5 -24,18l-2 6c-17,20 -24,35 -49,32l19 -11 14 -12c25,7 17,10 17,-18 -25,4 -22,-3 -17,18 -24,-6 -21,-12 -14,12 -23,-6 -19,-12 -19,11l-14 -10c-18,19 23,16 -24,16l3 -28 -32 0c-4,29 5,10 -8,28 -18,26 -6,10 -15,-2 -19,0 -14,-5 -12,15l-1 18 1 -18 44 33 -34 -6c12,11 13,13 34,23l6 -11 -6 49 0 -21 -19 23 12 37c28,136 79,88 139,126l23 -18 -21 -6c37,-5 17,-6 24,10 30,-3 26,6 26,-16 -38,-17 -4,-4 -4,-4 0,0 4,5 3,8 29,-4 24,5 24,-17 -3,-7 -42,7 26,-19l-24 22c36,-16 32,-16 76,-19 16,21 5,-1 10,35l16 22 -103 90 35 54c43,-23 44,-34 91,-39zm-124 -35c23,1 15,6 24,-17 -29,4 -24,-5 -24,17zm86 -84l-65 65c49,-13 52,-15 65,-65zm-37 165l22 -17 18 -6 -18 6c-29,-8 -22,-13 -22,17z"/>
  <path class="fil0" d="M1175 1848l-84 -26 11 24c35,24 39,38 71,54 35,17 22,7 53,38l-3 2 39 35 50 28c20,-4 16,-8 13,12 23,-4 15,-7 15,19l-2 4c44,13 111,72 140,112 5,28 -3,13 24,27 40,12 40,14 63,37 19,18 33,33 52,52l-3 2c-4,19 -7,14 13,12l26 23c42,12 32,6 63,41 23,-5 15,-8 15,18l-2 4c45,13 36,8 65,49 -10,26 -6,9 9,15l36 16 7 4c23,-3 5,31 23,-21 15,-46 20,-52 59,-76l5 2c13,-45 17,-47 59,-78l4 2c13,-44 18,-46 59,-77l4 1c13,-44 18,-46 59,-77l4 2c30,-58 55,-81 102,-128l2 3c19,4 14,7 12,-13 18,2 13,6 12,-13 17,1 13,4 11,-13l12 -39c-24,30 -17,18 -23,52 -19,-2 -14,-6 -12,13 -20,-2 -15,-6 -12,13 -50,17 -342,381 -381,439 -48,-34 -159,-151 -218,-162 2,-20 6,-15 -13,-12 -13,-39 -265,-243 -333,-298 -37,-29 -13,-23 -58,-30 -14,-42 -24,-29 -47,-66 131,7 278,124 421,93 54,-11 86,-18 105,-59 47,-6 44,-4 50,-50 67,-32 75,-149 62,-219 -35,-172 -296,-281 -475,-370l274 -333c48,-55 69,-66 76,-113 44,-14 139,-142 177,-189 41,-51 142,-138 151,-202 43,-14 133,-136 177,-189 41,-50 142,-139 151,-202 39,-12 3,1 32,-16l16 -12c45,39 91,95 147,105 15,44 237,224 253,225l-13 -11c-20,4 -16,8 -14,-12 -21,4 -14,7 -14,-19l2 -4 -16 -6c-24,-1 -15,5 -24,-20 -3,-34 -6,-23 -36,-37l-16 -6 -20 -11 -14 -11c-19,4 -15,8 -13,-12 -22,4 -14,7 -14,-19l2 -4 -16 -7 -19 -10 -14 -13 -16 -19 2 -4c3,-18 6,-13 -12,-11 -19,1 -15,7 -16,-11l-14 -7 -20 -11 -14 -11c-19,4 -15,8 -13,-12l-14 -22 -15 -7 -19 -11 -14 -11 -11 3 -5 -2 -6 16c0,24 5,15 -20,24l-2 -4 -35 40 -6 17 -10 19 -12 14c5,20 9,15 -11,13 3,22 6,14 -19,14l-5 -1 -6 16 -11 19 -12 14 -11 13c5,23 7,15 -19,15l-4 -2 -6 16 -11 19 -12 14 -11 14c5,23 7,15 -19,15l-4 -2 -12 15 -6 14 -11 20 -12 14c5,19 9,15 -11,13 3,22 6,14 -19,14l-4 -2 -7 16c0,24 5,15 -19,24l-3 -4 -34 40 -6 16 -11 20 -12 14c5,20 9,15 -11,13 3,22 6,14 -19,14l-5 -1 -6 16 -10 20 -12 14 -11 12c3,23 6,15 -20,15l-4 -2 -6 16 -11 19 -12 14c6,21 10,17 -11,14 5,23 7,15 -19,15l-4 -2 -12 15 -6 14 -11 20c-27,47 0,5 -33,39 -14,14 -23,23 -40,40l-2 -4 -34 40 -29 50c5,20 9,15 -11,13 3,22 6,14 -19,14l-4 -1c-13,43 -69,104 -104,138 5,23 8,15 -19,15l-4 -2 -40 63c4,19 8,15 -12,13 4,22 7,14 -19,14l-4 -2c-13,43 2,18 -28,50 5,23 7,15 -20,15 -17,4 -14,1 -29,11 9,29 -2,15 22,29l21 4c29,-8 21,-14 21,17l5 -4 21 17 1 -4c24,0 15,-5 24,18l-3 1c20,-1 15,-6 17,14l6 0 43 21 1 -3c24,-1 15,-6 24,17l0 -4c25,-1 17,-7 25,18l-4 1c22,-2 17,-8 18,13 14,15 -2,6 29,5l20 16 2 -3c23,-1 15,-6 24,17l-3 2c20,-1 15,-6 16,14l7 -1 43 22 1 -4c45,20 61,37 74,85l1 -4c24,9 18,1 17,26l-4 0c24,9 18,0 16,27l-4 22c19,2 13,-3 10,21l0 87c3,23 9,19 -10,20l4 23c2,26 8,17 -16,27l4 3 -15 22 -3 -2c1,20 5,14 -15,15l-1 9c-27,16 -33,23 -50,50l-8 0c-2,21 4,16 -17,15l3 2c-9,23 0,18 -25,17l-12 -6 -22 19 -28 -5c-38,37 -66,38 -103,-1l-15 6c-33,5 -15,6 -34,-17l-51 -9c-24,1 -16,7 -25,-16l-15 3 -24 -19 -14 7 -24 -19 -13 6 -25 -18 -15 6 -22 -19 -15 6c-34,4 -10,0 -51,11l28 -29z"/>
  <path class="fil0" d="M3 725c27,23 34,16 17,62 -11,62 3,125 8,190l-9 -277 199 0 0 973 -115 0c0,-236 -51,-449 -56,-683l-10 35 3 91c10,13 9,-13 20,39 10,40 5,16 -2,46l-4 54c18,15 17,7 8,48l4 90c16,19 19,8 24,51 4,30 -1,27 -6,44l-6 44c10,11 11,-10 23,39 7,31 2,23 -4,45l-7 73 145 0 -2 -1005 -16 1 -217 -1 3 41z"/>
  <path class="fil0" d="M1137 600l-61 0c13,16 -3,9 26,10 46,1 22,-2 35,-10zm113 12l-49 5 23 5c27,-5 12,-1 26,-10zm-220 6c-58,-2 -65,9 -118,19 10,6 -15,24 74,0 36,-9 40,-13 88,-13 -2,0 -6,-3 -7,-1l-37 -5zm-146 37l-11 -3c9,13 -4,12 37,10l-26 -7zm-47 13l-13 -6c19,16 -33,14 35,13l-22 -7zm-41 12l-23 -5c3,2 6,2 7,5l16 0zm-47 13l-14 -6c20,16 -32,14 36,13l-22 -7zm-40 13l-13 -4c9,13 -4,12 37,10l-24 -6zm-47 13l-15 -6c19,15 -31,13 36,12l-21 -6zm-41 12l-62 7c19,12 -21,10 33,9 16,0 18,-6 53,-9l-24 -7zm-86 25l-64 7c20,14 -24,10 33,9 16,0 18,-6 53,-9l-22 -7zm-89 25l-100 -8 3 753 31 -5c-37,-81 -12,-592 -12,-733l101 0 -23 -7zm-38 723l23 5 -23 -5z"/>
  <path class="fil0" d="M1326 626l-39 4 -22 8c8,-1 29,0 36,-2 23,-5 15,-4 25,-10zm63 12l-42 -3c-23,15 -26,0 -7,14 6,0 21,1 24,0 23,-7 14,-4 25,-11zm76 13l-30 5 -44 6c7,0 33,1 38,1l28 -8c2,0 5,-3 8,-4zm75 12l-38 5 -35 1c14,11 50,8 73,-6zm64 12l-43 -2c-23,15 -25,0 -7,14 6,0 21,0 24,0 24,-7 13,-4 26,-12zm16 41c-5,-23 -7,-15 20,-15l13 0 -49 -11c2,1 4,2 5,6 0,3 3,6 3,7l8 13zm-64 75c-3,-22 -6,-14 19,-14l5 1c12,-41 5,-23 31,-58l-53 60 -2 11zm-62 89c-20,-2 -15,-6 -12,14l-2 -4 2 4c19,3 14,6 12,-14l23 -26c12,-42 4,-23 31,-58 -36,37 -47,44 -54,84zm-120 136l4 2c12,-23 17,-39 39,-63 37,-41 27,-10 43,-58l-148 180 62 -61zm-69 91c-27,-1 -53,-2 -80,-2 -3,0 -36,-1 -37,0 -36,6 -18,-3 -35,18 26,-1 47,-1 73,-1 47,0 48,5 79,-15 17,2 12,5 10,-13l-9 -16 -1 29z"/>
  <path class="fil0" d="M1881 1051c9,12 -3,28 15,2 13,-18 4,1 8,-28l32 0 -3 28c47,0 6,3 24,-16 -10,-17 -1,-5 -21,-12 4,-22 6,-14 -16,-9 -2,0 -7,2 -8,3 -2,0 -6,3 -8,6 -18,9 -8,-16 -23,26zm-13 33l11 9 34 6 -44 -33 -1 18zm45 49l0 21 6 -49 -6 11 0 17zm132 186c-60,-38 -111,10 -139,-126l-12 -37c-11,123 29,172 151,163zm23 -18l3 4c-7,-16 13,-15 -24,-10l21 6zm28 -8c1,-3 -3,-8 -3,-8 0,0 -34,-13 4,4l-1 4zm26 -14l24 -22c-68,26 -29,12 -26,19l2 3z"/>
  <path class="fil0" d="M3554 3394l72 4 -53 -136c-23,18 -12,26 1,60 11,29 16,29 24,66l-113 0c2,0 6,-2 7,1 5,10 10,-8 62,5z"/>
  <path class="fil0" d="M2144 1368l3 2c-9,23 -1,18 -24,17l-18 -7c-10,35 -8,11 2,45l16 7c20,20 14,-8 23,39l22 -7 4 4c0,-30 -7,-25 22,-17l18 -6c29,-13 12,2 35,-23 -47,5 -48,16 -91,39l-35 -54 103 -90 -16 -22 1 8c-13,50 -16,52 -65,65z"/>
  <path class="fil0" d="M2059 1002c-7,-15 6,-20 -13,-11l-2 24 15 -13zm25 72l25 -2c-17,-35 -4,-22 -27,-31 -31,0 -26,8 -17,-22l19 55zm-36 31c16,-5 20,10 11,-13 2,-26 18,-22 -12,-12 -22,37 -7,12 1,25zm-38 49l0 -7c9,-24 -16,-8 24,-30l-10 -14 -25 30c-2,44 -5,3 11,21zm11 -148c0,28 8,25 -17,18l-14 12 -19 11c25,3 32,-12 49,-32l2 -6 -1 -3z"/>
  <path class="fil0" d="M1102 1846l-11 -24c-12,-6 29,-30 -23,-4 18,17 11,11 34,28z"/>
  <path class="fil0" d="M2107 1425c-10,-34 -12,-10 -2,-45l-20 12c13,42 12,23 22,33z"/>
 </g>
</svg>
