<?xml version="1.0" encoding="UTF-8"?>
<!DOCTYPE svg PUBLIC "-//W3C//DTD SVG 1.1//EN" "http://www.w3.org/Graphics/SVG/1.1/DTD/svg11.dtd">
<!-- Creator: CorelDRAW X8 -->
<svg xmlns="http://www.w3.org/2000/svg" xml:space="preserve" width="25.4mm" height="28.8992mm" version="1.1" style="shape-rendering:geometricPrecision; text-rendering:geometricPrecision; image-rendering:optimizeQuality; fill-rule:evenodd; clip-rule:evenodd"
viewBox="0 0 379 432"
 xmlns:xlink="http://www.w3.org/1999/xlink">
 <defs>
  <style type="text/css">
   <![CDATA[
    .fil0 {fill:#B2AADB}
    .fil1 {fill:#FFCADC}
   ]]>
  </style>
 </defs>
 <g id="Layer_x0020_1">
  <metadata id="CorelCorpID_0Corel-Layer"/>
  <path class="fil0" d="M76 18l0 230c0,9 8,18 18,18l146 0 0 145c0,5 -3,8 -7,8l-213 0c-4,0 -7,-3 -7,-8l0 -312c0,-12 8,-9 22,-9 13,0 27,3 27,-7 0,-4 -4,-6 -8,-6l-33 0c-6,0 -11,2 -14,5 -4,2 -7,7 -7,12l0 320c0,9 9,18 18,18l217 0c9,0 18,-9 18,-18l0 -8 71 0c9,0 17,-8 17,-17 0,-14 3,-21 -7,-21 -3,0 -5,3 -5,5 -2,6 3,21 -8,21l-68 0 0 -38 109 0c9,0 17,-9 17,-18l0 -282c0,-10 -10,-17 -21,-17l-34 0c-6,0 -8,3 -8,8 0,9 29,5 43,5 6,0 8,3 8,9l0 274c0,5 -3,8 -8,8l-106 0 0 -40 83 0c7,0 7,-12 0,-12l-83 0 0 -25 83 0c6,0 9,-12 0,-13l-33 0c1,-8 0,-17 0,-25l33 0c7,0 7,-13 0,-13l-33 0 0 -25 33 0c7,0 7,-13 0,-13l-33 0 0 -25 33 0c7,0 7,-13 0,-13l-33 0 0 -25 33 0c7,0 7,-13 0,-13l-40 0c-7,0 -5,11 -5,15l0 123c0,8 0,14 -8,14l-187 0c-4,0 -7,-3 -7,-8l0 -224c0,-6 2,-8 8,-8l186 0c8,0 8,6 8,14l0 55c0,10 12,7 12,1l0 -65c0,-9 -8,-18 -17,-18l-192 0c-10,0 -18,9 -18,18z"/>
  <path class="fil1" d="M114 213c0,-20 9,-27 24,-33 12,-4 32,-10 33,-24 9,1 3,2 24,2 5,0 8,-2 13,-2 1,14 22,20 33,24 26,10 25,23 25,48l-152 0 0 -15zm36 -103l0 -34c0,-11 6,-20 12,-25 26,-26 67,-3 67,25 0,23 4,45 -12,59 -30,26 -67,0 -67,-25zm-13 -32c0,23 -4,46 14,64 1,1 8,7 8,8 0,13 -23,16 -35,22 -27,14 -23,37 -23,63 0,2 3,5 5,5l167 0c2,0 5,-3 5,-5 0,-19 3,-35 -7,-49 -11,-18 -36,-19 -45,-27 -14,-11 0,-10 9,-26 10,-18 8,-33 8,-55 0,-33 -37,-63 -75,-47 -5,2 -11,6 -15,11 -8,7 -16,21 -16,36z"/>
 </g>
</svg>
