<?xml version="1.0" encoding="UTF-8"?>
<!DOCTYPE svg PUBLIC "-//W3C//DTD SVG 1.1//EN" "http://www.w3.org/Graphics/SVG/1.1/DTD/svg11.dtd">
<!-- Creator: CorelDRAW X8 -->
<svg xmlns="http://www.w3.org/2000/svg" xml:space="preserve" width="28.3256mm" height="21.2996mm" version="1.1" style="shape-rendering:geometricPrecision; text-rendering:geometricPrecision; image-rendering:optimizeQuality; fill-rule:evenodd; clip-rule:evenodd"
viewBox="0 0 1018 765"
 xmlns:xlink="http://www.w3.org/1999/xlink">
 <defs>
  <style type="text/css">
   <![CDATA[
    .fil0 {fill:#B2AADB}
    .fil1 {fill:#DFB5DB}
   ]]>
  </style>
 </defs>
 <g id="Layer_x0020_1">
  <metadata id="CorelCorpID_0Corel-Layer"/>
  <path class="fil0" d="M0 26l0 678c0,14 15,27 36,27l596 0c31,0 27,-31 4,-31l-606 0 0 -670 958 0 0 670 -80 0c-23,0 -25,31 4,31 27,0 81,5 94,-7 5,-4 12,-12 12,-20l0 -678c0,-12 -14,-26 -26,-26l-966 0c-12,0 -26,14 -26,26z"/>
  <path class="fil0" d="M56 87l0 557c0,15 11,30 25,30l561 0c15,0 15,-30 0,-30l-555 0 0 -557 843 0 0 557c-14,0 -40,-4 -40,14 0,20 24,16 46,16 14,0 26,-15 26,-30l0 -557c0,-18 -13,-31 -32,-31l-843 0c-18,0 -31,13 -31,31z"/>
  <path class="fil1" d="M723 724l0 -62 12 0c10,0 9,18 42,18 16,0 25,-18 32,-18l12 0 0 62c-35,-19 -36,-49 -73,-18 -4,3 -7,5 -11,9 -6,4 -7,7 -14,9zm-45 -201c0,-11 10,-8 22,-22 12,-12 7,-18 14,-32 18,0 32,3 46,-9 13,-12 12,-12 25,0 3,3 8,6 12,7 6,3 9,2 18,2 38,-1 4,21 40,41 25,14 4,14 4,41 0,22 21,25 -4,38 -21,11 -15,27 -26,43 -9,0 -8,-2 -22,-2 -15,0 -25,18 -36,18 -8,0 -13,-18 -38,-18 -10,0 -8,2 -17,2 -12,-17 -2,-15 -13,-31 -10,-14 -25,-14 -25,-21 0,-13 8,-6 8,-35 0,-10 -8,-15 -8,-22zm42 -86c-13,0 -22,4 -29,12 -12,12 -9,20 -12,27 -3,10 -13,10 -20,18 -26,25 -4,48 -4,57 0,6 -10,16 -8,31 1,10 8,22 14,27 15,10 14,0 20,22 5,21 10,10 11,29 1,40 -10,105 20,105 10,0 12,-1 20,-7l27 -21c5,-4 9,-8 14,-12 1,2 45,40 56,40 27,0 24,-23 24,-43 0,-21 -2,-45 0,-64 0,-15 6,-8 10,-22 4,-11 -2,-15 10,-21 9,-5 12,-7 18,-14 17,-23 -1,-41 -1,-50 0,-10 20,-32 -3,-57 -8,-8 -18,-7 -22,-18 -2,-7 0,-7 -3,-14 -6,-14 -19,-25 -35,-25 -19,0 -13,7 -28,-6 -15,-14 -37,-16 -53,-1 -17,15 -3,7 -26,7z"/>
  <path class="fil0" d="M308 350c0,9 6,16 16,16l509 0c21,0 24,-32 -6,-32l-497 0c-11,0 -22,6 -22,16z"/>
  <path class="fil0" d="M475 201c48,-4 30,-20 46,-32 6,25 19,30 43,32 -9,14 -19,11 -19,30 0,11 2,11 2,21 -26,-6 -13,-20 -56,2 10,-44 -3,-33 -16,-53zm10 -32c-16,0 -54,1 -54,22 0,17 14,24 27,37 8,8 5,10 3,22 -3,14 -9,44 16,44 11,0 37,-19 42,-19 8,0 32,19 42,19 34,0 15,-42 15,-63 7,-2 32,-25 32,-38 0,-23 -36,-24 -53,-24 -13,-24 -17,-46 -36,-46 -18,0 -33,40 -34,46z"/>
  <path class="fil0" d="M185 451l427 0c30,0 27,-32 4,-32l-435 0c-21,0 -26,32 4,32z"/>
  <path class="fil0" d="M179 535l423 0c15,0 19,-30 -4,-30l-421 0c-15,0 -21,30 2,30z"/>
  <path class="fil1" d="M702 551c0,62 76,90 119,50 46,-43 13,-123 -50,-121 -37,1 -69,32 -69,71zm20 -1c0,46 55,66 86,37 33,-31 9,-89 -36,-88 -27,1 -50,23 -50,51z"/>
  <path class="fil0" d="M181 366l71 0c20,0 30,-32 -8,-32l-55 0c-12,0 -23,2 -25,13 -2,10 6,19 17,19z"/>
  <path class="fil1" d="M764 550c-1,-1 -2,-2 -3,-3 -2,-3 -4,-8 -10,-8 -7,0 -10,5 -10,12 0,3 8,13 10,16 5,7 9,11 18,5l12 -9c2,-1 4,-3 6,-4 4,-3 19,-13 20,-16 4,-7 -2,-15 -7,-15 -6,0 -6,0 -12,5l-16 11c-2,2 -5,5 -8,6z"/>
 </g>
</svg>
