<?xml version="1.0" encoding="UTF-8"?>
<!DOCTYPE svg PUBLIC "-//W3C//DTD SVG 1.1//EN" "http://www.w3.org/Graphics/SVG/1.1/DTD/svg11.dtd">
<!-- Creator: CorelDRAW X8 -->
<svg xmlns="http://www.w3.org/2000/svg" xml:space="preserve" width="28.3256mm" height="25.338mm" version="1.1" style="shape-rendering:geometricPrecision; text-rendering:geometricPrecision; image-rendering:optimizeQuality; fill-rule:evenodd; clip-rule:evenodd"
viewBox="0 0 8212 7346"
 xmlns:xlink="http://www.w3.org/1999/xlink">
 <defs>
  <style type="text/css">
   <![CDATA[
    .fil1 {fill:#B2AADB}
    .fil0 {fill:#DFB5DB}
   ]]>
  </style>
 </defs>
 <g id="Layer_x0020_1">
  <metadata id="CorelCorpID_0Corel-Layer"/>
  <path class="fil0" d="M6673 1011l128 0c192,0 401,221 401,417l0 96c0,205 -212,417 -417,417 -193,0 -246,4 -398,-148 -168,-170 -166,-464 -8,-627 70,-71 161,-155 294,-155zm64 2806c132,-88 379,-373 469,-461 384,-376 1006,-1279 1006,-1800l0 -161c0,-719 -699,-1395 -1379,-1395 -341,0 -541,15 -835,192 -346,207 -626,542 -709,959 -49,245 -49,496 30,732 145,433 329,715 600,1069 168,220 629,739 818,865z"/>
  <path class="fil1" d="M1508 5470l-80 0c-205,0 -418,-213 -418,-417 0,-226 68,-402 295,-492 90,-36 181,-36 279,-18 249,47 446,346 335,632 -58,149 -211,295 -411,295zm-1508 -546c0,375 52,537 219,872 132,264 452,731 667,953 161,164 256,317 464,483 49,39 75,80 126,114l220 -196c66,-66 150,-139 206,-212 41,-52 55,-64 99,-109l286 -340c395,-505 775,-1114 639,-1796 -125,-631 -740,-1164 -1354,-1164 -283,0 -483,6 -740,142 -457,241 -832,705 -832,1253z"/>
  <path class="fil1" d="M3384 4299c0,286 29,474 190,708 238,343 571,495 1013,495 267,-1 1299,-29 1474,33 170,61 323,199 385,369 78,214 42,426 -65,590 -85,130 -269,275 -478,275l-3465 0 0 497 3433 0c582,0 1106,-510 1106,-1091 0,-539 -300,-952 -767,-1108 -159,-54 -332,-63 -548,-63 -397,0 -808,11 -1204,1 -191,-4 -312,-95 -412,-197 -380,-385 -109,-1071 461,-1071l1267 0 0 -497 -1203 0c-459,0 -862,215 -1064,620 -60,122 -123,265 -123,439z"/>
 </g>
</svg>
