<?xml version="1.0" encoding="UTF-8"?>
<!DOCTYPE svg PUBLIC "-//W3C//DTD SVG 1.1//EN" "http://www.w3.org/Graphics/SVG/1.1/DTD/svg11.dtd">
<!-- Creator: CorelDRAW X8 -->
<svg xmlns="http://www.w3.org/2000/svg" xml:space="preserve" width="28.3256mm" height="28.8608mm" version="1.1" style="shape-rendering:geometricPrecision; text-rendering:geometricPrecision; image-rendering:optimizeQuality; fill-rule:evenodd; clip-rule:evenodd"
viewBox="0 0 1016 1036"
 xmlns:xlink="http://www.w3.org/1999/xlink">
 <defs>
  <style type="text/css">
   <![CDATA[
    .fil2 {fill:#B2AADB}
    .fil1 {fill:#DFB5DB}
    .fil0 {fill:#FFCADC}
   ]]>
  </style>
 </defs>
 <g id="Layer_x0020_1">
  <metadata id="CorelCorpID_0Corel-Layer"/>
  <path class="fil0" d="M263 258l1 -107c75,0 160,-28 220,-73l24 -19 23 18c55,41 114,62 182,71 12,1 27,3 39,3 0,129 13,258 -59,365 -6,8 -11,17 -17,24l-29 30c-4,4 -6,6 -11,10 -14,11 -30,24 -46,33 -13,7 -71,38 -82,38 -5,0 -47,-20 -55,-24 -31,-15 -47,-26 -72,-47l-21 -19c-19,-21 -17,-16 -36,-45 -43,-64 -61,-151 -61,-258zm-50 -88l2 144c0,28 10,90 18,118 12,43 31,88 57,123l20 26c10,12 35,34 47,44 20,16 45,33 68,44 19,9 67,33 85,33 10,0 53,-19 65,-25l30 -15c22,-12 47,-30 66,-46 5,-4 7,-7 12,-12 7,-5 20,-21 27,-29 48,-51 81,-147 88,-218 7,-77 5,-110 5,-187 0,-10 0,-48 -3,-54 -9,-17 -20,-14 -44,-14 -6,-1 -20,-2 -26,-3 -37,-5 -59,-8 -95,-21 -17,-7 -33,-15 -48,-24 -4,-2 -5,-3 -9,-6l-33 -24c-16,-14 -23,-24 -38,-24 -15,0 -30,21 -42,30 -29,22 -70,45 -105,55 -32,9 -65,15 -99,17 -23,1 -35,-4 -44,13 -5,9 -1,14 -3,26 -1,9 -1,18 -1,29z"/>
  <path class="fil1" d="M473 330c-26,4 -43,17 -55,31 -15,19 -17,39 -17,68 0,34 -7,28 58,28l149 0c8,-1 8,-7 8,-15 0,-30 2,-49 -13,-73 -9,-16 -26,-30 -48,-37 -16,-4 -65,-5 -82,-2z"/>
  <path class="fil1" d="M502 203c-31,4 -57,31 -53,66 4,31 31,56 66,52 30,-3 56,-30 52,-65 -3,-31 -30,-57 -65,-53z"/>
  <path class="fil2" d="M445 979c7,13 6,12 -12,14 -44,0 -127,17 -158,19 -23,1 -16,14 -29,-83 18,-9 172,-24 192,-27l7 77zm-143 -83l-14 6 -3 -13c-3,-24 -25,-34 -46,-47 -143,-90 -164,-83 -194,-259 -5,-31 -27,-132 -22,-156 59,-14 68,45 74,74 30,149 10,80 7,122 -1,26 91,96 112,116 7,7 11,15 18,21 4,3 6,5 11,5 66,7 -110,-111 -119,-142 44,-62 96,34 141,45 98,24 134,59 133,152 0,21 6,43 9,63l-107 13zm-35 6l-43 6c-3,23 9,106 14,128 33,1 209,-20 230,-29 7,-19 -2,-51 -5,-74 -8,-65 -2,-49 -32,-56 -9,-55 -6,-102 -17,-130 -39,-96 -143,-86 -177,-122 -34,-36 -36,-45 -101,-40 -12,-73 -17,-171 -89,-181 -61,-9 -48,40 -40,83 46,273 31,254 226,378 20,12 29,12 34,37z"/>
  <path class="fil2" d="M582 992c-19,0 -15,-3 -11,-13l4 -57 5 -17c-5,-18 8,-2 9,-1 45,2 166,17 181,25l-10 84 -178 -21zm150 -103l-4 12 -13 -6 -107 -11c14,-111 0,-159 91,-200 59,-26 44,1 97,-46 20,-17 63,-60 95,-15 -5,18 -22,26 -35,37l-72 67c-37,31 -30,43 -9,37l68 -62c16,-13 71,-59 69,-79 -2,-29 -18,2 -5,-62 12,-58 14,-152 86,-134 6,25 -17,128 -22,159 -10,59 -13,97 -41,140 -56,84 -192,114 -198,163zm148 -304c-60,-4 -67,3 -99,38 -38,42 -191,32 -187,185 0,28 -4,43 -8,69 -28,7 -24,-12 -32,52 -3,24 -13,58 -5,78 21,9 197,30 230,29 5,-22 16,-105 14,-127l-43 -8c5,-24 14,-24 33,-36 198,-126 179,-104 228,-381 7,-43 18,-88 -39,-81 -36,5 -60,32 -69,66 -8,35 -17,79 -23,116z"/>
  <path class="fil2" d="M433 993c18,-2 19,-1 12,-14 -3,11 -3,8 -12,14z"/>
  <path class="fil2" d="M582 992c-10,-6 -7,-2 -11,-13 -4,10 -8,13 11,13z"/>
  <path class="fil2" d="M302 896c-17,-1 -7,1 -17,-7l3 13 14 -6z"/>
  <path class="fil2" d="M715 895l13 6 4 -12c-10,8 0,6 -17,6z"/>
  <path class="fil2" d="M575 922l5 -17 9 -1c-1,-1 -14,-17 -9,1l-5 17z"/>
 </g>
</svg>
